; OM File Header - Saved 2022/12/09 20:20:30
; (7.01 :patc (om-make-point 282 72) (om-make-point 50 50) (om-make-point 573 520) "No documentation " 183 0 nil "2022/12/09 20:20:30")
; End File Header
(in-package :om)(load-lib-for (quote nil))(setf *om-current-persistent* (om-load-patch1 "tutorial-05" (quote ((let ((box (om-load-boxcomment "comment11" (om-make-point 376 37) (quote "TUTORIAL 5 - Retrograde transposition of notes") "" (om-make-point 139 37) nil (om-make-color 0 0 0) (om-make-font "Verdana" 12 :family "Verdana" :style (quote (:bold)) :mode (quote nil))))) (when (fboundp (quote set-active)) (set-active box nil)) box) (let ((box (om-load-editor-box1 "CHORD-SEQ" (quote chord-seq) (quote ((om-load-inputfun (quote input-funbox) "object or object list" "object" nil) (om-load-inputfun (quote input-funbox) "LMIDIC" "LMIDIC" (list 6000)) (om-load-inputfun (quote input-funbox) "LONSET" "LONSET" (list 0 1000)) (om-load-inputfun (quote input-funbox) "LDUR" "LDUR" (list 1000)) (om-load-inputfun (quote input-funbox) "LVEL" "LVEL" (list 100)) (om-load-inputfun (quote input-funbox) "LOFFSET" "LOFFSET" (list 0)) (om-load-inputfun (quote input-funbox) "LCHAN" "LCHAN" (list 1)) (om-load-inputfun (quote input-funbox) "LEGATO" "LEGATO" 100))) (om-make-point 162 353) (om-make-point 248 93) (let ((newobj (when (find-class (quote chord-seq) nil) (make-instance (quote chord-seq) :lmidic (quote ((7300) (7400) (8000) (6600) (5800) (6200))) :lonset (quote (0 1000 2000 3000 4000 5000 6000)) :ldur (quote ((1000) (1000) (1000) (1000) (1000) (1000))) :lvel (quote ((100) (100) (100) (100) (100) (100))) :loffset (quote ((0) (0) (0) (0) (0) (0))) :lchan (quote ((1) (1) (1) (1) (1) (1))) :legato 100)))) (load-port-info newobj (quote ((0) (0) (0) (0) (0) (0)))) (init-mus-color newobj (quote nil)) (set-extra-pairs newobj (quote nil)) (set-patch-pairs newobj (quote nil)) (set-name newobj nil) (set-tonalite newobj nil) newobj) nil nil (pairlis (quote (player winpos winsize mode grillestep notechancolor? zoom deltapict cmnpref staff fontsize approx outport inport palette-mode obj-mode show-stems scale)) (list (quote :midishare) 2621450 18350450 0 1000 nil 1 (om-make-point 0 0) (let ((newobj (make-instance (quote edition-values)))) (setf (paper-size newobj) (om-make-point 600 800)) (setf (top-margin newobj) 2) (setf (left-margin newobj) 1) (setf (right-margin newobj) 1) (setf (bottom-margin newobj) 1) (setf (orientation newobj) nil) (setf (scale newobj) nil) (setf (system-space newobj) (quote (1))) (setf (system-color newobj) (quote nil)) (setf (line-space newobj) 1) (setf (title newobj) nil) (setf (show-title? newobj) nil) (setf (show-page? newobj) nil) (setf (sheet-id newobj) nil) (setf (page-mode newobj) nil) newobj) (quote g) 24 2 0 0 0 0 (quote t) nil)) t nil nil nil))) (when (fboundp (quote set-active)) (set-active box nil)) box) (let ((box (om-load-boxcomment "comment" (om-make-point 18 23) (quote "E") "" (om-make-point 417 394) nil (om-make-color 0 0 0) (om-make-font "Geneva" 10 :family "Geneva" :style (quote (:plain)) :mode (quote nil))))) (when (fboundp (quote set-active)) (set-active box nil)) box) (let ((box (om-load-boxcomment "comment" (om-make-point 14 20) (quote "D") "" (om-make-point 293 302) nil (om-make-color 0 0 0) (om-make-font "Geneva" 10 :family "Geneva" :style (quote (:plain)) :mode (quote nil))))) (when (fboundp (quote set-active)) (set-active box nil)) box) (let ((box (om-load-boxcomment "comment" (om-make-point 13 20) (quote "C") "" (om-make-point 286 246) nil (om-make-color 0 0 0) (om-make-font "Geneva" 10 :family "Geneva" :style (quote (:plain)) :mode (quote nil))))) (when (fboundp (quote set-active)) (set-active box nil)) box) (let ((box (om-load-boxcomment "comment" (om-make-point 16 20) (quote "B") "" (om-make-point 372 167) nil (om-make-color 0 0 0) (om-make-font "Geneva" 10 :family "Geneva" :style (quote (:plain)) :mode (quote nil))))) (when (fboundp (quote set-active)) (set-active box nil)) box) (let ((box (om-load-boxcomment "comment" (om-make-point 17 20) (quote "A") "" (om-make-point 180 127) nil (om-make-color 0 0 0) (om-make-font "Geneva" 10 :family "Geneva" :style (quote (:plain)) :mode (quote nil))))) (when (fboundp (quote set-active)) (set-active box nil)) box) (let ((box (om-load-boxcall (quote bastype) "aux" (quote t) (quote nil) (om-make-point 305 169) (om-make-point 47 30) 200 "200" nil))) (when (fboundp (quote set-active)) (set-active box nil)) box) (let ((box (om-load-boxcall (quote lispfun) "REVERSE" (quote reverse) (quote ((om-load-inputfun (quote input-funbox) "ARG-0" "ARG-0" nil))) (om-make-point 235 300) nil nil nil nil 1))) (when (fboundp (quote set-active)) (set-active box nil)) box) (let ((box (om-load-boxcall (quote genfun) "OM+" (quote om+) (quote ((om-load-inputfun (quote input-funbox) "first input" "SELF" 0) (om-load-inputfun (quote input-funbox) "second input" "NUM" 0))) (om-make-point 251 242) (om-make-point 24 35) nil nil nil 1))) (when (fboundp (quote set-active)) (set-active box nil)) box) (let ((box (om-load-editor-box1 "CHORD" (quote chord) (quote ((om-load-inputfun (quote input-funbox) "object or object list" "object" nil) (om-load-inputfun (quote input-funbox) "LMIDIC" "LMIDIC" (list 6000)) (om-load-inputfun (quote input-funbox) "LVEL" "LVEL" (list 100)) (om-load-inputfun (quote input-funbox) "LOFFSET" "LOFFSET" (list 0)) (om-load-inputfun (quote input-funbox) "LDUR" "LDUR" (list 1000)) (om-load-inputfun (quote input-funbox) "LCHAN" "LCHAN" (list 1)))) (om-make-point 208 117) (om-make-point 70 90) (let ((thechord (make-instance (quote chord) :lmidic (quote (6000 5600 6400 7800 7200 7100)) :ldur (quote (1000 1000 1000 1000 1000 1000)) :lvel (quote (100 100 100 100 100 100)) :loffset (quote (0 0 0 0 0 0)) :lchan (quote (1 1 1 1 1 1))))) (load-port-info thechord (quote (0 0 0 0 0 0))) (init-mus-color thechord (quote nil)) (set-extra-pairs thechord (quote nil)) (set-tonalite thechord nil) thechord) "x" nil (pairlis (quote (score-mode cursor-mode player winpos winsize mode grillestep notechancolor? zoom deltapict cmnpref staff fontsize approx outport inport palette-mode obj-mode show-stems scale)) (list 0 (quote :normal) (quote :midishare) (om-make-point 10 40) (om-make-point 500 280) 0 1000 nil 1 (om-make-point 0 0) (let ((newobj (make-instance (quote edition-values)))) (setf (paper-size newobj) (om-make-point 600 800)) (setf (top-margin newobj) 2) (setf (left-margin newobj) 1) (setf (right-margin newobj) 1) (setf (bottom-margin newobj) 1) (setf (orientation newobj) nil) (setf (scale newobj) nil) (setf (system-space newobj) (quote (1))) (setf (system-color newobj) (quote nil)) (setf (line-space newobj) 1) (setf (title newobj) nil) (setf (show-title? newobj) nil) (setf (show-page? newobj) nil) (setf (sheet-id newobj) nil) (setf (page-mode newobj) nil) newobj) (quote g) 24 2 0 0 0 0 (quote t) nil)) t nil nil nil))) (when (fboundp (quote set-active)) (set-active box nil)) box))) (quote ((8 0 1 1 nil 0) (9 0 8 0 nil 0) (10 1 9 0 nil 0) (7 0 9 1 nil 0))) nil 7.01))
