; OM File Header - Saved 2023/09/22 10:32:36
; (7.01 :patc (om-make-point 1079 275) (om-make-point 148 7) (om-make-point 1996 923) "" 183 0 "2023/01/31 03:24:16" "2023/01/31 03:39:44")
; End File Header
; External resources 
; (list (list (quote :abstraction) "#P\"../misc/tile.omp\"" "#P\"../scales/major-scale.omp\"" "#P\"../chords/chords-from-degrees.omp\""))
(in-package :om)(load-lib-for (quote nil))(setf *om-current-persistent* (om-load-patch1 "random-arpeggio" (quote ((let ((box (om-load-boxcall (quote bastype) "aux 5" (quote t) (quote nil) (om-make-point 746 742) (om-make-point 32 28) 10 "10" nil))) (when (fboundp (quote set-active)) (set-active box nil)) box) (let ((box (om-load-boxcall (quote patch-box) "tile 2" (quote ("elements" "misc" "tile")) (quote ((om-load-inputfun (quote input-funbox) "" "list" nil) (om-load-inputfun (quote input-funbox) "" "n" nil))) (om-make-point 728 772) nil nil nil "tile" 1))) (when (fboundp (quote set-active)) (set-active box nil)) box) (let ((box (om-load-editor-box1 "CHORD-SEQ 3" (quote chord-seq) (quote ((om-load-inputfun (quote input-funbox) "object" "self" nil) (om-load-inputfun (quote input-funbox) "pitches (mc): list or list of lists" "lmidic" (list 6000)) (om-load-inputfun (quote input-funbox) "onsets (ms): list" "lonset" (list 0 1000)) (om-load-inputfun (quote input-funbox) "durations (ms): list or list of lists" "ldur" (list 1000)) (om-load-inputfun (quote input-funbox) "velocities (0-127): list or list of lists" "lvel" (list 100)) (om-load-inputfun (quote input-funbox) "offsets (ms): list or list of lists" "loffset" (list 0)) (om-load-inputfun (quote input-funbox) "MIDI channels (1-16): list or list of lists" "lchan" (list 1)) (om-load-inputfun (quote input-funbox) "relative chords duration (0-100)" "legato" 0))) (om-make-point 1034 763) (om-make-point 885 126) (let ((newobj (when (find-class (quote chord-seq) nil) (make-instance (quote chord-seq) :lmidic (quote ((7200) (6000) (7200) (6700) (6400) (6700) (6400) (6000) (7200) (6000) (7200) (6700) (6400) (6700) (6400) (6000) (7200) (6000) (7200) (6700) (6400) (6700) (6400) (6000) (7200) (6000) (7200) (6700) (6400) (6700) (6400) (6000) (7200) (6000) (7200) (6700) (6400) (6700) (6400) (6000) (7200) (6000) (7200) (6700) (6400) (6700) (6400) (6000) (7200) (6000) (7200) (6700) (6400) (6700) (6400) (6000) (7200) (6000) (7200) (6700) (6400) (6700) (6400) (6000) (7200) (6000) (7200) (6700) (6400) (6700) (6400) (6000) (7200) (6000) (7200) (6700) (6400) (6700) (6400) (6000))) :lonset (quote (0 1000 2000 3000 4000 5000 6000 7000 8000 9000 10000 11000 12000 13000 14000 15000 16000 17000 18000 19000 20000 21000 22000 23000 24000 25000 26000 27000 28000 29000 30000 31000 32000 33000 34000 35000 36000 37000 38000 39000 40000 41000 42000 43000 44000 45000 46000 47000 48000 49000 50000 51000 52000 53000 54000 55000 56000 57000 58000 59000 60000 61000 62000 63000 64000 65000 66000 67000 68000 69000 70000 71000 72000 73000 74000 75000 76000 77000 78000 79000 80000)) :ldur (quote ((1000) (1000) (1000) (1000) (1000) (1000) (1000) (1000) (1000) (1000) (1000) (1000) (1000) (1000) (1000) (1000) (1000) (1000) (1000) (1000) (1000) (1000) (1000) (1000) (1000) (1000) (1000) (1000) (1000) (1000) (1000) (1000) (1000) (1000) (1000) (1000) (1000) (1000) (1000) (1000) (1000) (1000) (1000) (1000) (1000) (1000) (1000) (1000) (1000) (1000) (1000) (1000) (1000) (1000) (1000) (1000) (1000) (1000) (1000) (1000) (1000) (1000) (1000) (1000) (1000) (1000) (1000) (1000) (1000) (1000) (1000) (1000) (1000) (1000) (1000) (1000) (1000) (1000) (1000) (1000))) :lvel (quote ((100) (100) (100) (100) (100) (100) (100) (100) (100) (100) (100) (100) (100) (100) (100) (100) (100) (100) (100) (100) (100) (100) (100) (100) (100) (100) (100) (100) (100) (100) (100) (100) (100) (100) (100) (100) (100) (100) (100) (100) (100) (100) (100) (100) (100) (100) (100) (100) (100) (100) (100) (100) (100) (100) (100) (100) (100) (100) (100) (100) (100) (100) (100) (100) (100) (100) (100) (100) (100) (100) (100) (100) (100) (100) (100) (100) (100) (100) (100) (100))) :loffset (quote ((0) (0) (0) (0) (0) (0) (0) (0) (0) (0) (0) (0) (0) (0) (0) (0) (0) (0) (0) (0) (0) (0) (0) (0) (0) (0) (0) (0) (0) (0) (0) (0) (0) (0) (0) (0) (0) (0) (0) (0) (0) (0) (0) (0) (0) (0) (0) (0) (0) (0) (0) (0) (0) (0) (0) (0) (0) (0) (0) (0) (0) (0) (0) (0) (0) (0) (0) (0) (0) (0) (0) (0) (0) (0) (0) (0) (0) (0) (0) (0))) :lchan (quote ((1) (1) (1) (1) (1) (1) (1) (1) (1) (1) (1) (1) (1) (1) (1) (1) (1) (1) (1) (1) (1) (1) (1) (1) (1) (1) (1) (1) (1) (1) (1) (1) (1) (1) (1) (1) (1) (1) (1) (1) (1) (1) (1) (1) (1) (1) (1) (1) (1) (1) (1) (1) (1) (1) (1) (1) (1) (1) (1) (1) (1) (1) (1) (1) (1) (1) (1) (1) (1) (1) (1) (1) (1) (1) (1) (1) (1) (1) (1) (1))) :legato 0)))) (load-port-info newobj (quote ((0) (0) (0) (0) (0) (0) (0) (0) (0) (0) (0) (0) (0) (0) (0) (0) (0) (0) (0) (0) (0) (0) (0) (0) (0) (0) (0) (0) (0) (0) (0) (0) (0) (0) (0) (0) (0) (0) (0) (0) (0) (0) (0) (0) (0) (0) (0) (0) (0) (0) (0) (0) (0) (0) (0) (0) (0) (0) (0) (0) (0) (0) (0) (0) (0) (0) (0) (0) (0) (0) (0) (0) (0) (0) (0) (0) (0) (0) (0) (0)))) (init-mus-color newobj (quote nil)) (set-extra-pairs newobj (quote nil)) (set-patch-pairs newobj (quote nil)) (set-name newobj nil) (set-tonalite newobj nil) newobj) nil nil (pairlis (quote (scale show-stems cursor-mode obj-mode score-mode winpos winsize mode grillestep notechancolor? zoom player inport outport deltapict cmnpref staff fontsize approx)) (list nil (quote t) (quote :normal) 1 0 (om-make-point 400 20) (om-make-point 370 280) 0 1000 nil 1 (quote :midi-player) nil nil (om-make-point 0 0) (let ((newobj (make-instance (quote edition-values)))) (setf (paper-size newobj) (om-make-point 600 800)) (setf (top-margin newobj) 2) (setf (left-margin newobj) 1) (setf (right-margin newobj) 1) (setf (bottom-margin newobj) 1) (setf (orientation newobj) nil) (setf (scale newobj) nil) (setf (system-space newobj) (quote (1))) (setf (system-color newobj) (quote nil)) (setf (line-space newobj) 1) (setf (title newobj) nil) (setf (show-title? newobj) nil) (setf (show-page? newobj) nil) (setf (sheet-id newobj) nil) (setf (page-mode newobj) nil) newobj) (quote g) 24 2)) t nil nil nil))) (when (fboundp (quote set-active)) (set-active box nil)) box) (let ((box (om-load-boxcall (quote bastype) "aux 4" (quote t) (quote nil) (om-make-point 663 545) (om-make-point 26 28) 8 "8" nil))) (when (fboundp (quote set-active)) (set-active box nil)) box) (let ((box (om-load-boxcall (quote lispfun) "SUBSEQ" (quote subseq) (quote ((om-load-inputfun (quote input-funbox) "SEQUENCE" "SEQUENCE" nil) (om-load-inputfun (quote input-funbox) "START" "START" nil) (om-load-inputfun (quote input-funbox) "add-input" "add-input" nil))) (om-make-point 605 578) nil nil nil nil 1))) (when (fboundp (quote set-active)) (set-active box nil)) box) (let ((box (om-load-boxcall (quote bastype) "aux 3" (quote t) (quote nil) (om-make-point 629 548) (om-make-point 26 28) 0 "0" nil))) (when (fboundp (quote set-active)) (set-active box nil)) box) (let ((box (om-load-boxcall (quote bastype) "aux 2" (quote t) (quote nil) (om-make-point 345 133) (om-make-point 26 28) 0 "0" nil))) (when (fboundp (quote set-active)) (set-active box nil)) box) (let ((box (om-load-boxcall (quote bastype) "list 2" (quote list) (quote nil) (om-make-point 153 67) (om-make-point 75 28) (list 1 3 5 1 3) "(1 3 5 1 3)" nil))) (when (fboundp (quote set-active)) (set-active box nil)) box) (let ((box (om-load-editor-box1 "CHORD-SEQ 2" (quote chord-seq) (quote ((om-load-inputfun (quote input-funbox) "object" "self" nil) (om-load-inputfun (quote input-funbox) "pitches (mc): list or list of lists" "lmidic" (list 6000)) (om-load-inputfun (quote input-funbox) "onsets (ms): list" "lonset" (list 0 1000)) (om-load-inputfun (quote input-funbox) "durations (ms): list or list of lists" "ldur" (list 1000)) (om-load-inputfun (quote input-funbox) "velocities (0-127): list or list of lists" "lvel" (list 100)) (om-load-inputfun (quote input-funbox) "offsets (ms): list or list of lists" "loffset" (list 0)) (om-load-inputfun (quote input-funbox) "MIDI channels (1-16): list or list of lists" "lchan" (list 1)) (om-load-inputfun (quote input-funbox) "relative chords duration (0-100)" "legato" 0))) (om-make-point 725 617) (om-make-point 726 114) (let ((newobj (when (find-class (quote chord-seq) nil) (make-instance (quote chord-seq) :lmidic (quote ((7200) (6000) (7200) (6700) (6400) (6700) (6400) (6000))) :lonset (quote (0 1000 2000 3000 4000 5000 6000 7000 8000)) :ldur (quote ((1000) (1000) (1000) (1000) (1000) (1000) (1000) (1000))) :lvel (quote ((100) (100) (100) (100) (100) (100) (100) (100))) :loffset (quote ((0) (0) (0) (0) (0) (0) (0) (0))) :lchan (quote ((1) (1) (1) (1) (1) (1) (1) (1))) :legato 0)))) (load-port-info newobj (quote ((0) (0) (0) (0) (0) (0) (0) (0)))) (init-mus-color newobj (quote nil)) (set-extra-pairs newobj (quote nil)) (set-patch-pairs newobj (quote nil)) (set-name newobj nil) (set-tonalite newobj nil) newobj) nil nil (pairlis (quote (scale show-stems cursor-mode obj-mode score-mode winpos winsize mode grillestep notechancolor? zoom player inport outport deltapict cmnpref staff fontsize approx)) (list nil (quote t) (quote :normal) 1 0 (om-make-point 400 20) (om-make-point 370 280) 0 1000 nil 1 (quote :midi-player) nil nil (om-make-point 0 0) (let ((newobj (make-instance (quote edition-values)))) (setf (paper-size newobj) (om-make-point 600 800)) (setf (top-margin newobj) 2) (setf (left-margin newobj) 1) (setf (right-margin newobj) 1) (setf (bottom-margin newobj) 1) (setf (orientation newobj) nil) (setf (scale newobj) nil) (setf (system-space newobj) (quote (1))) (setf (system-color newobj) (quote nil)) (setf (line-space newobj) 1) (setf (title newobj) nil) (setf (show-title? newobj) nil) (setf (show-page? newobj) nil) (setf (sheet-id newobj) nil) (setf (page-mode newobj) nil) newobj) (quote g) 24 2)) t nil nil nil))) (when (fboundp (quote set-active)) (set-active box nil)) box) (let ((box (om-load-boxcall (quote genfun) "PERMUT-RANDOM" (quote permut-random) (quote ((om-load-inputfun (quote input-funbox) "a list" "LIST" nil))) (om-make-point 469 684) nil nil nil nil 1))) (when (fboundp (quote set-active)) (set-active box nil)) box) (let ((box (om-load-boxcall (quote genfun) "FLAT 2" (quote flat) (quote ((om-load-inputfun (quote input-funbox) "a list" "LST" nil))) (om-make-point 369 704) nil nil nil nil 1))) (when (fboundp (quote set-active)) (set-active box nil)) box) (let ((box (om-load-boxcall (quote bastype) "aux" (quote t) (quote nil) (om-make-point 329 619) (om-make-point 26 28) 2 "2" nil))) (when (fboundp (quote set-active)) (set-active box nil)) box) (let ((box (om-load-boxcall (quote genfun) "REPEAT-N 2" (quote repeat-n) (quote ((om-load-inputfun (quote input-funbox) "something" "SELF" nil) (om-load-inputfun (quote input-funbox) "times" "N" 0))) (om-make-point 299 649) nil nil nil nil 1))) (when (fboundp (quote set-active)) (set-active box nil)) box) (let ((box (om-load-boxcall (quote genfun) "FLAT" (quote flat) (quote ((om-load-inputfun (quote input-funbox) "a list" "LST" nil))) (om-make-point 252 582) nil nil nil nil 1))) (when (fboundp (quote set-active)) (set-active box nil)) box) (let ((box (om-load-boxcall (quote lispfun) "FIRST" (quote first) (quote ((om-load-inputfun (quote input-funbox) "LIST" "LIST" nil))) (om-make-point 372 374) nil nil nil nil 1))) (when (fboundp (quote set-active)) (set-active box nil)) box) (let ((box (om-load-editor-box1 "CHORD-SEQ" (quote chord-seq) (quote ((om-load-inputfun (quote input-funbox) "object" "self" nil) (om-load-inputfun (quote input-funbox) "pitches (mc): list or list of lists" "lmidic" (list 6000)) (om-load-inputfun (quote input-funbox) "onsets (ms): list" "lonset" (list 0 1000)) (om-load-inputfun (quote input-funbox) "durations (ms): list or list of lists" "ldur" (list 1000)) (om-load-inputfun (quote input-funbox) "velocities (0-127): list or list of lists" "lvel" (list 100)) (om-load-inputfun (quote input-funbox) "offsets (ms): list or list of lists" "loffset" (list 0)) (om-load-inputfun (quote input-funbox) "MIDI channels (1-16): list or list of lists" "lchan" (list 1)) (om-load-inputfun (quote input-funbox) "relative chords duration (0-100)" "legato" 0))) (om-make-point 90 429) (om-make-point 417 125) (let ((newobj (when (find-class (quote chord-seq) nil) (make-instance (quote chord-seq) :lmidic (quote ((6000) (6400) (6700) (7200) (7600))) :lonset (quote (0 1000 2000 3000 4000 5000)) :ldur (quote ((1000) (1000) (1000) (1000) (1000))) :lvel (quote ((100) (100) (100) (100) (100))) :loffset (quote ((0) (0) (0) (0) (0))) :lchan (quote ((1) (1) (1) (1) (1))) :legato 0)))) (load-port-info newobj (quote ((0) (0) (0) (0) (0)))) (init-mus-color newobj (quote nil)) (set-extra-pairs newobj (quote nil)) (set-patch-pairs newobj (quote nil)) (set-name newobj nil) (set-tonalite newobj nil) newobj) nil nil (pairlis (quote (scale show-stems cursor-mode obj-mode score-mode winpos winsize mode grillestep notechancolor? zoom player inport outport deltapict cmnpref staff fontsize approx)) (list nil (quote t) (quote :normal) 1 0 (om-make-point 400 20) (om-make-point 370 280) 0 1000 nil 1 (quote :midi-player) nil nil (om-make-point 0 0) (let ((newobj (make-instance (quote edition-values)))) (setf (paper-size newobj) (om-make-point 600 800)) (setf (top-margin newobj) 2) (setf (left-margin newobj) 1) (setf (right-margin newobj) 1) (setf (bottom-margin newobj) 1) (setf (orientation newobj) nil) (setf (scale newobj) nil) (setf (system-space newobj) (quote (1))) (setf (system-color newobj) (quote nil)) (setf (line-space newobj) 1) (setf (title newobj) nil) (setf (show-title? newobj) nil) (setf (show-page? newobj) nil) (setf (sheet-id newobj) nil) (setf (page-mode newobj) nil) newobj) (quote g) 24 2)) t nil nil nil))) (when (fboundp (quote set-active)) (set-active box nil)) box) (let ((box (om-load-boxcall (quote lispfun) "LENGTH" (quote length) (quote ((om-load-inputfun (quote input-funbox) "SEQUENCE" "SEQUENCE" nil))) (om-make-point 258 138) nil nil nil nil 1))) (when (fboundp (quote set-active)) (set-active box nil)) box) (let ((box (om-load-boxcall (quote genfun) "REPEAT-N" (quote repeat-n) (quote ((om-load-inputfun (quote input-funbox) "something" "SELF" nil) (om-load-inputfun (quote input-funbox) "times" "N" 0))) (om-make-point 315 163) nil nil nil nil 1))) (when (fboundp (quote set-active)) (set-active box nil)) box) (let ((box (om-load-boxcall (quote patch-box) "major-scale" (quote ("elements" "scales" "major-scale")) (quote ((om-load-inputfun (quote input-funbox) "the start note" "startnote" 6000))) (om-make-point 0 117) nil nil nil nil 1))) (when (fboundp (quote set-active)) (set-active box nil)) box) (let ((box (om-load-boxcall (quote patch-box) "chords-from-degrees" (quote ("elements" "chords" "chords-from-degrees")) (quote ((om-load-inputfun (quote input-funbox) "" "scale" (list 6000 6200 6400 6500 6700 6900 7100)) (om-load-inputfun (quote input-funbox) "" "degrees" (list (list 1 3 5) (list 5 1 3) (list 3 5 1) (list 1 1))) (om-load-inputfun (quote input-funbox) "" "octaves" (list 0 0 1 1)))) (om-make-point 159 282) nil nil nil nil 1))) (when (fboundp (quote set-active)) (set-active box nil)) box) (let ((box (om-load-boxcall (quote lispfun) "LIST" (quote list) (quote ((om-load-inputfun (quote input-funbox) "add-input" "add-input" nil))) (om-make-point 209 138) nil nil nil nil 1))) (when (fboundp (quote set-active)) (set-active box nil)) box))) (quote ((8 1 1 0 nil 0) (0 0 1 1 nil 0) (1 0 2 1 nil 0) (9 0 4 0 nil 0) (5 0 4 1 nil 0) (3 0 4 2 nil 0) (4 0 8 1 nil 0) (10 0 9 0 nil 0) (12 0 10 0 nil 0) (13 0 12 0 nil 0) (11 0 12 1 nil 0) (15 1 13 0 nil 0) (19 0 14 0 nil 0) (14 0 15 1 nil 0) (7 0 16 0 nil 0) (6 0 17 0 nil 0) (16 0 17 1 nil 0) (18 0 19 0 nil 0) (20 0 19 1 nil 0) (17 0 19 2 nil 0) (7 0 20 0 nil 0))) nil 7.01))
