; OM File Header - Saved 2023/01/24 13:29:50
; (7.01 :patc (om-make-point 712 10) (om-make-point 50 50) (om-make-point 1770 1028) "" 183 0 "2023/01/24 12:03:22" "2023/01/24 13:26:06")
; End File Header
; External resources 
; (list (list (quote :abstraction) "#P\"../scales/normalize-degrees.omp\"" "#P\"../scales/melody-from-degrees.omp\"" "#P\"../scales/major-scale.omp\""))
(in-package :om)(load-lib-for (quote nil))(setf *om-current-persistent* (om-load-patch1 "random-scales" (quote ((let ((box (om-load-boxcomment "comment" (om-make-point 451 26) (quote "Because MIDI can't distinguish enharmonics, the scale may look wrong at first") nil (om-make-point 1474 942) nil (om-make-color 0 0 0) (om-make-font "Verdana" 12 :family "Verdana" :style (quote (:plain)) :mode (quote nil))))) (when (fboundp (quote set-active)) (set-active box nil)) box) (let ((box (om-load-boxcall (quote patch-box) "normalize-degrees 2" (quote ("elements" "scales" "normalize-degrees")) (quote ((om-load-inputfun (quote input-funbox) "" "degrees" nil))) (om-make-point 837 475) nil nil nil "normalize-degrees" 2))) (when (fboundp (quote set-active)) (set-active box nil)) box) (let ((box (om-load-seqbox "SEQUENCE" (quote sequence) (quote ((om-load-inputfun (quote input-funbox) "something" "PATCH" nil) (om-load-inputfun (quote input-funbox) "more things" "OPPATCH" nil) (om-load-inputfun (quote input-funbox) "more things" "OPPATCH" nil) (om-load-inputfun (quote input-funbox) "more things" "OPPATCH" nil))) (om-make-point 1482 1107) nil nil nil 4))) (when (fboundp (quote set-active)) (set-active box nil)) box) (let ((box (om-load-editor-box1 "BUTTON" (quote button) (quote ((om-load-inputfun (quote input-funbox) "button text" "text" "Generate") (om-load-inputfun (quote input-funbox) "a function or box in lambda mode" "action" (quote t)))) (om-make-point 1594 1009) (om-make-point 130 44) (let ((rep (om-make-dialog-item (quote button) (om-make-point 1 1) (om-make-point 110 24) "Generate"))) rep) nil nil (pairlis (quote (winsize winpos)) (list (om-make-point 335 275) (om-make-point 10 40))) nil nil nil nil))) (when (fboundp (quote set-active)) (set-active box nil)) box) (let ((box (om-load-boxcomment "comment" (om-make-point 46 26) (quote "Mode") nil (om-make-point 1403 1037) nil (om-make-color 0 0 0) (om-make-font "Verdana" 12 :family "Verdana" :style (quote (:plain)) :mode (quote nil))))) (when (fboundp (quote set-active)) (set-active box nil)) box) (let ((box (om-load-editor-box1 "TEXTFILE 2" (quote textfile) (quote ((om-load-inputfun (quote input-funbox) "object" "self" nil) (om-load-inputfun (quote input-funbox) "input data or text" "exp-list" nil) (om-load-inputfunmenu1 (quote input-funmenu) "append or supersede" "ed-mode" "supersede" (list (list "append" "append") (list "supersede" "supersede"))) (om-load-inputfunmenu1 (quote input-funmenu) "eval interpretation mode" "eval-mode" "list" (list (list "text" "text") (list "data list" "data") (list "list" "list") (list "value" "value"))))) (om-make-point 1329 1047) (om-make-point 70 50) (load-buffer-textfile (quote ("6" "")) (quote textfile) "supersede" "list") nil nil (pairlis (quote (winsize winpos)) (list (om-make-point 335 275) (om-make-point 10 40))) t nil nil nil))) (when (fboundp (quote set-active)) (set-active box nil)) box) (let ((box (om-load-boxcall (quote genfun) "OMIF 5" (quote omif) (quote ((om-load-inputfun (quote input-funbox) "IF" "TEST" nil) (om-load-inputfun (quote input-funbox) "THEN" "ACTION" nil))) (om-make-point 716 922) nil nil nil nil 1))) (when (fboundp (quote set-active)) (set-active box nil)) box) (let ((box (om-load-editor-box1 "CHORD-SEQ 2" (quote chord-seq) (quote ((om-load-inputfun (quote input-funbox) "object" "self" nil) (om-load-inputfun (quote input-funbox) "pitches (mc): list or list of lists" "lmidic" (list 6000)) (om-load-inputfun (quote input-funbox) "onsets (ms): list" "lonset" (list 0 1000)) (om-load-inputfun (quote input-funbox) "durations (ms): list or list of lists" "ldur" (list 1000)) (om-load-inputfun (quote input-funbox) "velocities (0-127): list or list of lists" "lvel" (list 100)) (om-load-inputfun (quote input-funbox) "offsets (ms): list or list of lists" "loffset" (list 0)) (om-load-inputfun (quote input-funbox) "MIDI channels (1-16): list or list of lists" "lchan" (list 1)) (om-load-inputfun (quote input-funbox) "relative chords duration (0-100)" "legato" 0))) (om-make-point 66 1081) (om-make-point 765 92) (let ((newobj (when (find-class (quote chord-seq) nil) (make-instance (quote chord-seq) :lmidic (quote nil) :lonset (quote (0)) :ldur (quote nil) :lvel (quote nil) :loffset (quote nil) :lchan (quote nil) :legato 0)))) (load-port-info newobj (quote nil)) (init-mus-color newobj (quote nil)) (set-extra-pairs newobj (quote nil)) (set-patch-pairs newobj (quote nil)) (set-name newobj nil) (set-tonalite newobj nil) newobj) nil nil (pairlis (quote (scale show-stems cursor-mode obj-mode score-mode winpos winsize mode grillestep notechancolor? zoom player inport outport deltapict cmnpref staff fontsize approx)) (list nil (quote t) (quote :normal) 1 0 (om-make-point -8 -8) (om-make-point 2194 1151) 0 1000 nil 1 (quote :midi-player) nil nil (om-make-point 0 0) (let ((newobj (make-instance (quote edition-values)))) (setf (paper-size newobj) (om-make-point 600 800)) (setf (top-margin newobj) 2) (setf (left-margin newobj) 1) (setf (right-margin newobj) 1) (setf (bottom-margin newobj) 1) (setf (orientation newobj) nil) (setf (scale newobj) nil) (setf (system-space newobj) (quote (1))) (setf (system-color newobj) (quote nil)) (setf (line-space newobj) 1) (setf (title newobj) nil) (setf (show-title? newobj) nil) (setf (show-page? newobj) nil) (setf (sheet-id newobj) nil) (setf (page-mode newobj) nil) newobj) (quote f) 24 2)) t nil nil nil))) (when (fboundp (quote set-active)) (set-active box nil)) box) (let ((box (om-load-boxcall (quote genfun) "OMIF 4" (quote omif) (quote ((om-load-inputfun (quote input-funbox) "IF" "TEST" nil) (om-load-inputfun (quote input-funbox) "THEN" "ACTION" nil) (om-load-inputfun (quote input-funbox) "ELSE" "ELSE" nil))) (om-make-point 276 924) nil nil nil nil 1))) (when (fboundp (quote set-active)) (set-active box nil)) box) (let ((box (om-load-editor-box1 "CHORD-SEQ" (quote chord-seq) (quote ((om-load-inputfun (quote input-funbox) "object" "self" nil) (om-load-inputfun (quote input-funbox) "pitches (mc): list or list of lists" "lmidic" (list 6000)) (om-load-inputfun (quote input-funbox) "onsets (ms): list" "lonset" (list 0 1000)) (om-load-inputfun (quote input-funbox) "durations (ms): list or list of lists" "ldur" (list 1000)) (om-load-inputfun (quote input-funbox) "velocities (0-127): list or list of lists" "lvel" (list 100)) (om-load-inputfun (quote input-funbox) "offsets (ms): list or list of lists" "loffset" (list 0)) (om-load-inputfun (quote input-funbox) "MIDI channels (1-16): list or list of lists" "lchan" (list 1)) (om-load-inputfun (quote input-funbox) "relative chords duration (0-100)" "legato" 0))) (om-make-point 68 1005) (om-make-point 759 98) (let ((newobj (when (find-class (quote chord-seq) nil) (make-instance (quote chord-seq) :lmidic (quote ((7500) (7700) (7800) (8000) (8200) (8400) (8600) (8700) (8500) (8300) (8200) (8000) (7800) (7700) (7500))) :lonset (quote (0 1000 2000 3000 4000 5000 6000 7000 8000 9000 10000 11000 12000 13000 14000 15000)) :ldur (quote ((1000) (1000) (1000) (1000) (1000) (1000) (1000) (1000) (1000) (1000) (1000) (1000) (1000) (1000) (1000))) :lvel (quote ((100) (100) (100) (100) (100) (100) (100) (100) (100) (100) (100) (100) (100) (100) (100))) :loffset (quote ((0) (0) (0) (0) (0) (0) (0) (0) (0) (0) (0) (0) (0) (0) (0))) :lchan (quote ((1) (1) (1) (1) (1) (1) (1) (1) (1) (1) (1) (1) (1) (1) (1))) :legato 0)))) (load-port-info newobj (quote ((0) (0) (0) (0) (0) (0) (0) (0) (0) (0) (0) (0) (0) (0) (0)))) (init-mus-color newobj (quote nil)) (set-extra-pairs newobj (quote nil)) (set-patch-pairs newobj (quote nil)) (set-name newobj nil) (set-tonalite newobj nil) newobj) nil nil (pairlis (quote (scale show-stems cursor-mode obj-mode score-mode winpos winsize mode grillestep notechancolor? zoom player inport outport deltapict cmnpref staff fontsize approx)) (list nil (quote t) (quote :normal) 1 0 (om-make-point -8 -8) (om-make-point 2194 1151) 0 1000 nil 1 (quote :midi-player) nil nil (om-make-point 0 0) (let ((newobj (make-instance (quote edition-values)))) (setf (paper-size newobj) (om-make-point 600 800)) (setf (top-margin newobj) 2) (setf (left-margin newobj) 1) (setf (right-margin newobj) 1) (setf (bottom-margin newobj) 1) (setf (orientation newobj) nil) (setf (scale newobj) nil) (setf (system-space newobj) (quote (1))) (setf (system-color newobj) (quote nil)) (setf (line-space newobj) 1) (setf (title newobj) nil) (setf (show-title? newobj) nil) (setf (show-page? newobj) nil) (setf (sheet-id newobj) nil) (setf (page-mode newobj) nil) newobj) (quote g) 24 2)) t nil nil nil))) (when (fboundp (quote set-active)) (set-active box nil)) box) (let ((box (om-load-boxcomment "comment" (om-make-point 68 26) (quote "Modified?") nil (om-make-point 1199 1036) nil (om-make-color 0 0 0) (om-make-font "Verdana" 12 :family "Verdana" :style (quote (:plain)) :mode (quote nil))))) (when (fboundp (quote set-active)) (set-active box nil)) box) (let ((box (om-load-editor-box1 "TEXTFILE" (quote textfile) (quote ((om-load-inputfun (quote input-funbox) "object" "self" nil) (om-load-inputfun (quote input-funbox) "input data or text" "exp-list" nil) (om-load-inputfunmenu1 (quote input-funmenu) "append or supersede" "ed-mode" "supersede" (list (list "append" "append") (list "supersede" "supersede"))) (om-load-inputfunmenu1 (quote input-funmenu) "eval interpretation mode" "eval-mode" "list" (list (list "text" "text") (list "data list" "data") (list "list" "list") (list "value" "value"))))) (om-make-point 1134 1045) (om-make-point 70 50) (load-buffer-textfile (quote ("t" "")) (quote textfile) "supersede" "list") nil nil (pairlis (quote (winsize winpos)) (list (om-make-point 335 275) (om-make-point 10 40))) t nil nil nil))) (when (fboundp (quote set-active)) (set-active box nil)) box) (let ((box (om-load-boxcall (quote bastype) "aux 18" (quote t) (quote nil) (om-make-point 1184 958) (om-make-point 26 28) 0 "0" nil))) (when (fboundp (quote set-active)) (set-active box nil)) box) (let ((box (om-load-boxcall (quote lispfun) ">" (quote >) (quote ((om-load-inputfun (quote input-funbox) "NUM" "NUM" nil) (om-load-inputfun (quote input-funbox) "add-input" "add-input" nil))) (om-make-point 1170 988) nil nil nil nil 1))) (when (fboundp (quote set-active)) (set-active box nil)) box) (let ((box (om-load-boxcall (quote bastype) "aux 17" (quote t) (quote nil) (om-make-point 1090 869) (om-make-point 38 28) 100 "100" nil))) (when (fboundp (quote set-active)) (set-active box nil)) box) (let ((box (om-load-boxcall (quote lispfun) "COUNT" (quote count) (quote ((om-load-inputfun (quote input-funbox) "ITEM" "ITEM" nil) (om-load-inputfun (quote input-funbox) "SEQUENCE" "SEQUENCE" nil))) (om-make-point 1138 915) nil nil nil nil 1))) (when (fboundp (quote set-active)) (set-active box nil)) box) (let ((box (om-load-boxcomment "comment" (om-make-point 132 26) (quote "minor scale selection") nil (om-make-point 1265 129) nil (om-make-color 0 0 0) (om-make-font "Verdana" 12 :family "Verdana" :style (quote (:plain)) :mode (quote nil))))) (when (fboundp (quote set-active)) (set-active box nil)) box) (let ((box (om-load-boxcall (quote genfun) "NTH-RANDOM" (quote nth-random) (quote ((om-load-inputfun (quote input-funbox) "a list" "LIST" nil))) (om-make-point 1374 359) nil nil "&" nil 1))) (when (fboundp (quote set-active)) (set-active box nil)) box) (let ((box (om-load-boxcall (quote lispfun) "LIST 4" (quote list) (quote ((om-load-inputfun (quote input-funbox) "add-input" "add-input" nil) (om-load-inputfun (quote input-funbox) "add-input" "add-input" nil) (om-load-inputfun (quote input-funbox) "add-input" "add-input" nil))) (om-make-point 1373 260) nil nil nil nil 1))) (when (fboundp (quote set-active)) (set-active box nil)) box) (let ((box (om-load-boxcall (quote bastype) "list 3" (quote list) (quote nil) (om-make-point 1154 170) (om-make-point 164 28) (list 0 0 0 0 0 0 0 0 0 0 0 0 0 0 0) "(0 0 0 0 0 0 0 0 0 0 0 0 0 0 0)" nil))) (when (fboundp (quote set-active)) (set-active box nil)) box) (let ((box (om-load-boxcall (quote bastype) "list 2" (quote list) (quote nil) (om-make-point 1556 184) (om-make-point 189 28) (list 0 0 0 0 0 100 100 0 0 0 0 0 0 0 0) "(0 0 0 0 0 100 100 0 0 0 0 0 0 0 0)" nil))) (when (fboundp (quote set-active)) (set-active box nil)) box) (let ((box (om-load-boxcall (quote bastype) "list" (quote list) (quote nil) (om-make-point 1336 175) (om-make-point 189 28) (list 0 0 0 0 0 0 100 0 100 0 0 0 0 0 0) "(0 0 0 0 0 0 100 0 100 0 0 0 0 0 0)" nil))) (when (fboundp (quote set-active)) (set-active box nil)) box) (let ((box (om-load-boxcall (quote genfun) "OMIF 3" (quote omif) (quote ((om-load-inputfun (quote input-funbox) "IF" "TEST" nil) (om-load-inputfun (quote input-funbox) "THEN" "ACTION" nil) (om-load-inputfun (quote input-funbox) "ELSE" "ELSE" nil))) (om-make-point 1128 733) nil nil nil nil 1))) (when (fboundp (quote set-active)) (set-active box nil)) box) (let ((box (om-load-boxcall (quote bastype) "aux 16" (quote t) (quote nil) (om-make-point 1103 205) (om-make-point 26 28) 6 "6" nil))) (when (fboundp (quote set-active)) (set-active box nil)) box) (let ((box (om-load-boxcall (quote genfun) "OM= 2" (quote om=) (quote ((om-load-inputfun (quote input-funbox) "a number" "A" 0) (om-load-inputfun (quote input-funbox) "a number" "B" 0))) (om-make-point 1093 235) (om-make-point 21 35) nil nil nil 1))) (when (fboundp (quote set-active)) (set-active box nil)) box) (let ((box (om-load-boxcomment "comment" (om-make-point 146 26) (quote "modal scale by degrees") nil (om-make-point 783 354) nil (om-make-color 0 0 0) (om-make-font "Verdana" 12 :family "Verdana" :style (quote (:plain)) :mode (quote nil))))) (when (fboundp (quote set-active)) (set-active box nil)) box) (let ((box (om-load-boxcall (quote genfun) "OM+ 2" (quote om+) (quote ((om-load-inputfun (quote input-funbox) "number or list" "ARG1" 0) (om-load-inputfun (quote input-funbox) "number or list" "ARG2" 0))) (om-make-point 745 343) (om-make-point 25 35) nil nil nil 1))) (when (fboundp (quote set-active)) (set-active box nil)) box) (let ((box (om-load-boxcall (quote lispfun) "APPEND" (quote append) (quote ((om-load-inputfun (quote input-funbox) "add-input" "add-input" nil) (om-load-inputfun (quote input-funbox) "add-input" "add-input" nil))) (om-make-point 827 260) nil nil nil nil 1))) (when (fboundp (quote set-active)) (set-active box nil)) box) (let ((box (om-load-boxcall (quote bastype) "aux 15" (quote t) (quote nil) (om-make-point 960 128) (om-make-point 31 28) -1 "-1" nil))) (when (fboundp (quote set-active)) (set-active box nil)) box) (let ((box (om-load-boxcall (quote bastype) "aux 14" (quote t) (quote nil) (om-make-point 907 132) (om-make-point 26 28) 1 "1" nil))) (when (fboundp (quote set-active)) (set-active box nil)) box) (let ((box (om-load-boxcall (quote bastype) "aux 13" (quote t) (quote nil) (om-make-point 892 132) (om-make-point 26 28) 7 "7" nil))) (when (fboundp (quote set-active)) (set-active box nil)) box) (let ((box (om-load-boxcall (quote genfun) "ARITHM-SER 2" (quote arithm-ser) (quote ((om-load-inputfun (quote input-funbox) "begin" "BEGIN" 0) (om-load-inputfun (quote input-funbox) "end " "END" 10) (om-load-inputfun (quote input-funbox) "step" "STEP" 1))) (om-make-point 881 162) nil nil nil nil 1))) (when (fboundp (quote set-active)) (set-active box nil)) box) (let ((box (om-load-boxcall (quote bastype) "aux 12" (quote t) (quote nil) (om-make-point 779 112) (om-make-point 26 28) 8 "8" nil))) (when (fboundp (quote set-active)) (set-active box nil)) box) (let ((box (om-load-boxcall (quote bastype) "aux 11" (quote t) (quote nil) (om-make-point 764 112) (om-make-point 26 28) 1 "1" nil))) (when (fboundp (quote set-active)) (set-active box nil)) box) (let ((box (om-load-boxcall (quote genfun) "ARITHM-SER" (quote arithm-ser) (quote ((om-load-inputfun (quote input-funbox) "begin" "BEGIN" 0) (om-load-inputfun (quote input-funbox) "end " "END" 10) (om-load-inputfun (quote input-funbox) "step" "STEP" 1))) (om-make-point 797 157) nil nil nil nil 1))) (when (fboundp (quote set-active)) (set-active box nil)) box) (let ((box (om-load-boxcall (quote bastype) "aux 10" (quote t) (quote nil) (om-make-point 647 170) (om-make-point 26 28) 1 "1" nil))) (when (fboundp (quote set-active)) (set-active box nil)) box) (let ((box (om-load-boxcall (quote genfun) "OM-" (quote om-) (quote ((om-load-inputfun (quote input-funbox) "number or list" "ARG1" 0) (om-load-inputfun (quote input-funbox) "number or list" "ARG2" 0))) (om-make-point 637 200) (om-make-point 105 35) nil nil nil 1))) (when (fboundp (quote set-active)) (set-active box nil)) box) (let ((box (om-load-boxcall (quote bastype) "aux 9" (quote t) (quote nil) (om-make-point 655 78) (om-make-point 26 28) 7 "7" nil))) (when (fboundp (quote set-active)) (set-active box nil)) box) (let ((box (om-load-boxcall (quote bastype) "aux 8" (quote t) (quote nil) (om-make-point 625 78) (om-make-point 26 28) 1 "1" nil))) (when (fboundp (quote set-active)) (set-active box nil)) box) (let ((box (om-load-boxcall (quote genfun) "OM-RANDOM 3" (quote om-random) (quote ((om-load-inputfun (quote input-funbox) "min" "LOW" 0) (om-load-inputfun (quote input-funbox) "max" "HIGH" 1))) (om-make-point 607 108) nil nil "&" nil 1))) (when (fboundp (quote set-active)) (set-active box nil)) box) (let ((box (om-load-boxcall (quote patch-box) "melody-from-degrees" (quote ("elements" "scales" "melody-from-degrees")) (quote ((om-load-inputfun (quote input-funbox) "" "key" 6000) (om-load-inputfun (quote input-funbox) "" "scale" (list 6000 6200 6400 6500 6700 6900 7100)) (om-load-inputfun (quote input-funbox) "" "degrees" (list 1 2 3 2 7 1)) (om-load-inputfun (quote input-funbox) "" "octaves" (list 0 0 0 0 -1 0)) (om-load-inputfun (quote input-funbox) "" "accidentals" (list 0 0 0 0 0 0)))) (om-make-point 580 843) nil nil nil nil 1))) (when (fboundp (quote set-active)) (set-active box nil)) box) (let ((box (om-load-boxcomment "comment" (om-make-point 99 26) (quote "mode selection") nil (om-make-point 606 46) nil (om-make-color 0 0 0) (om-make-font "Verdana" 12 :family "Verdana" :style (quote (:plain)) :mode (quote nil))))) (when (fboundp (quote set-active)) (set-active box nil)) box) (let ((box (om-load-boxcomment "comment" (om-make-point 84 26) (quote "parent scale") nil (om-make-point 442 670) nil (om-make-color 0 0 0) (om-make-font "Verdana" 12 :family "Verdana" :style (quote (:plain)) :mode (quote nil))))) (when (fboundp (quote set-active)) (set-active box nil)) box) (let ((box (om-load-boxcall (quote patch-box) "major-scale" (quote ("elements" "scales" "major-scale")) (quote ((om-load-inputfun (quote input-funbox) "the start note" "startnote" 6000))) (om-make-point 377 656) nil nil nil nil 1))) (when (fboundp (quote set-active)) (set-active box nil)) box) (let ((box (om-load-boxcomment "comment" (om-make-point 116 26) (quote "start note of scale") nil (om-make-point 418 585) nil (om-make-color 0 0 0) (om-make-font "Verdana" 12 :family "Verdana" :style (quote (:plain)) :mode (quote nil))))) (when (fboundp (quote set-active)) (set-active box nil)) box) (let ((box (om-load-boxcall (quote bastype) "aux 7" (quote t) (quote nil) (om-make-point 384 557) (om-make-point 38 28) 100 "100" nil))) (when (fboundp (quote set-active)) (set-active box nil)) box) (let ((box (om-load-boxcall (quote genfun) "OM*" (quote om*) (quote ((om-load-inputfun (quote input-funbox) "number or list" "ARG1" 0) (om-load-inputfun (quote input-funbox) "number or list" "ARG2" 0))) (om-make-point 347 587) (om-make-point 46 35) nil nil nil 1))) (when (fboundp (quote set-active)) (set-active box nil)) box) (let ((box (om-load-boxcall (quote genfun) "OM+" (quote om+) (quote ((om-load-inputfun (quote input-funbox) "number or list" "ARG1" 0) (om-load-inputfun (quote input-funbox) "number or list" "ARG2" 0))) (om-make-point 372 498) (om-make-point 22 35) nil nil nil 1))) (when (fboundp (quote set-active)) (set-active box nil)) box) (let ((box (om-load-boxcall (quote bastype) "aux 4" (quote t) (quote nil) (om-make-point 338 389) (om-make-point 32 28) 60 "60" nil))) (when (fboundp (quote set-active)) (set-active box nil)) box) (let ((box (om-load-boxcall (quote bastype) "aux 6" (quote t) (quote nil) (om-make-point 292 376) (om-make-point 32 28) 36 "36" nil))) (when (fboundp (quote set-active)) (set-active box nil)) box) (let ((box (om-load-boxcall (quote bastype) "aux 5" (quote t) (quote nil) (om-make-point 278 299) (om-make-point 42 28) (quote bass) "bass" nil))) (when (fboundp (quote set-active)) (set-active box nil)) box) (let ((box (om-load-boxcall (quote lispfun) "EQUAL" (quote equal) (quote ((om-load-inputfun (quote input-funbox) "X" "X" nil) (om-load-inputfun (quote input-funbox) "Y" "Y" nil))) (om-make-point 258 329) nil nil nil nil 1))) (when (fboundp (quote set-active)) (set-active box nil)) box) (let ((box (om-load-boxcall (quote genfun) "OMIF 2" (quote omif) (quote ((om-load-inputfun (quote input-funbox) "IF" "TEST" nil) (om-load-inputfun (quote input-funbox) "THEN" "ACTION" nil) (om-load-inputfun (quote input-funbox) "ELSE" "ELSE" nil))) (om-make-point 265 423) nil nil nil nil 1))) (when (fboundp (quote set-active)) (set-active box nil)) box) (let ((box (om-load-boxcomment "comment" (om-make-point 126 26) (quote "pitch class selection") nil (om-make-point 379 55) nil (om-make-color 0 0 0) (om-make-font "Verdana" 12 :family "Verdana" :style (quote (:plain)) :mode (quote nil))))) (when (fboundp (quote set-active)) (set-active box nil)) box) (let ((box (om-load-boxcall (quote bastype) "aux 3" (quote t) (quote nil) (om-make-point 413 80) (om-make-point 32 28) 11 "11" nil))) (when (fboundp (quote set-active)) (set-active box nil)) box) (let ((box (om-load-boxcall (quote genfun) "OM-RANDOM 2" (quote om-random) (quote ((om-load-inputfun (quote input-funbox) "min" "LOW" 0) (om-load-inputfun (quote input-funbox) "max" "HIGH" 1))) (om-make-point 373 110) nil nil "&" nil 1))) (when (fboundp (quote set-active)) (set-active box nil)) box) (let ((box (om-load-boxcomment "comment" (om-make-point 124 26) (quote "clef/range selection") nil (om-make-point 93 51) nil (om-make-color 0 0 0) (om-make-font "Verdana" 12 :family "Verdana" :style (quote (:plain)) :mode (quote nil))))) (when (fboundp (quote set-active)) (set-active box nil)) box) (let ((box (om-load-boxcall (quote bastype) "aux 2" (quote t) (quote nil) (om-make-point 230 195) (om-make-point 49 28) (quote treble) "treble" nil))) (when (fboundp (quote set-active)) (set-active box nil)) box) (let ((box (om-load-boxcall (quote bastype) "aux" (quote t) (quote nil) (om-make-point 176 176) (om-make-point 42 28) (quote bass) "bass" nil))) (when (fboundp (quote set-active)) (set-active box nil)) box) (let ((box (om-load-boxcall (quote genfun) "OM=" (quote om=) (quote ((om-load-inputfun (quote input-funbox) "a number" "A" 0) (om-load-inputfun (quote input-funbox) "a number" "B" 0))) (om-make-point 140 161) nil nil nil nil 1))) (when (fboundp (quote set-active)) (set-active box nil)) box) (let ((box (om-load-boxcall (quote genfun) "OMIF" (quote omif) (quote ((om-load-inputfun (quote input-funbox) "IF" "TEST" nil) (om-load-inputfun (quote input-funbox) "THEN" "ACTION" nil) (om-load-inputfun (quote input-funbox) "ELSE" "ELSE" nil))) (om-make-point 183 225) nil nil nil nil 1))) (when (fboundp (quote set-active)) (set-active box nil)) box) (let ((box (om-load-boxcall (quote genfun) "OM-RANDOM" (quote om-random) (quote ((om-load-inputfun (quote input-funbox) "min" "LOW" 0) (om-load-inputfun (quote input-funbox) "max" "HIGH" 1))) (om-make-point 103 76) nil nil "&" nil 1))) (when (fboundp (quote set-active)) (set-active box nil)) box))) (quote ((26 0 1 0 nil 0) (9 1 2 0 nil 0) (7 1 2 1 nil 0) (11 1 2 2 nil 0) (5 1 2 3 nil 0) (2 0 3 1 nil 0) (39 0 5 1 ((om-make-point 638 164) (om-make-point 742 714) (om-make-point 1358 610) (om-make-point 1357 1047)) 0) (51 0 6 0 ((om-make-point 274 369) (om-make-point 274 645) (om-make-point 332 881) (om-make-point 726 922)) 0) (40 0 6 1 nil 0) (6 0 7 1 nil 0) (51 0 8 0 nil 0) (40 0 8 2 nil 0) (8 0 9 1 nil 0) (13 0 11 1 nil 0) (15 0 13 0 nil 0) (12 0 13 1 nil 0) (14 0 15 0 nil 0) (22 0 15 1 nil 0) (18 0 17 0 nil 0) (19 0 18 0 nil 0) (21 0 18 1 nil 0) (20 0 18 2 nil 0) (24 0 22 0 nil 0) (17 0 22 1 nil 0) (19 0 22 2 nil 0) (39 0 24 0 ((om-make-point 638 164) (om-make-point 742 95) (om-make-point 1084 7) (om-make-point 1100 235)) 0) (23 0 24 1 nil 0) (36 0 26 0 nil 0) (27 0 26 1 nil 0) (34 0 27 0 nil 0) (31 0 27 1 nil 0) (30 0 31 0 nil 0) (29 0 31 1 nil 0) (28 0 31 2 nil 0) (33 0 34 0 nil 0) (32 0 34 1 nil 0) (39 0 36 0 nil 0) (35 0 36 1 nil 0) (38 0 39 0 nil 0) (37 0 39 1 nil 0) (46 0 40 0 ((om-make-point 368 620) (om-make-point 368 676) (om-make-point 464 616) (om-make-point 599 843)) 0) (43 0 40 1 nil 0) (1 0 40 2 nil 0) (1 1 40 3 nil 0) (22 0 40 4 nil 0) (46 0 43 0 nil 0) (47 0 46 0 nil 0) (45 0 46 1 nil 0) (52 0 47 0 nil 0) (55 0 47 1 nil 0) (60 0 51 0 nil 0) (50 0 51 1 nil 0) (51 0 52 0 nil 0) (49 0 52 1 nil 0) (48 0 52 2 nil 0) (54 0 55 1 nil 0) (61 0 59 0 nil 0) (59 0 60 0 nil 0) (58 0 60 1 nil 0) (57 0 60 2 nil 0))) nil 7.01))
