; OM File Header - Saved 2023/01/15 13:01:57
; (7.01 :patc (om-make-point 442 10) (om-make-point 522 579) (om-make-point 500 350) "" 183 0 "2023/01/13 16:50:35" "2023/01/15 12:42:53")
; End File Header
(in-package :om)(load-lib-for (quote nil))(setf *om-current-persistent* (om-load-patch1 "coalesce" (quote ((let ((box (om-load-boxcall (quote genfun) "OMOR" (quote omor) (quote ((om-load-inputfun (quote input-funbox) "something" "SELF" nil) (om-load-inputfun (quote input-funbox) "other things" "REST" nil))) (om-make-point 137 172) (om-make-point 39 35) nil nil nil 1))) (when (fboundp (quote set-active)) (set-active box nil)) box) (let ((box (om-load-boxout "output" 0 (om-make-point 260 234) (quote ((om-load-inputfun (quote input-funbox) "" "out" nil))) "newvalue" nil))) (when (fboundp (quote set-active)) (set-active box nil)) box) (let ((box (om-load-boxin "default" 1 (om-make-point 55 45) "" "default" 0 nil))) (when (fboundp (quote set-active)) (set-active box nil)) box) (let ((box (om-load-boxin "value" 0 (om-make-point 5 45) "" "value" nil nil))) (when (fboundp (quote set-active)) (set-active box nil)) box))) (quote ((3 0 0 0 nil 0) (2 0 0 1 nil 0) (0 0 1 0 nil 0))) nil 7.01))
