; OM File Header - Saved 2023/01/31 02:12:49
; (7.01 :patc (om-make-point 24 24) (om-make-point 50 50) (om-make-point 500 380) "" 183 0 nil "2023/01/31 02:05:15")
; End File Header
(in-package :om)(load-lib-for (quote nil))(setf *om-current-persistent* (om-load-patch1 "safe-nth" (quote ((let ((box (om-load-boxcomment "comment" (om-make-point 213 26) (quote "nth but returns nil if negative index") nil (om-make-point 192 74) nil (om-make-color 0 0 0) (om-make-font "Verdana" 12 :family "Verdana" :style (quote (:plain)) :mode (quote nil))))) (when (fboundp (quote set-active)) (set-active box nil)) box) (let ((box (om-load-boxcall (quote lispfun) "NTH" (quote nth) (quote ((om-load-inputfun (quote input-funbox) "ORIG-N" "ORIG-N" nil) (om-load-inputfun (quote input-funbox) "ORIG-LIST" "ORIG-LIST" nil))) (om-make-point 73 155) nil nil nil nil 1))) (when (fboundp (quote set-active)) (set-active box nil)) box) (let ((box (om-load-boxcall (quote lispfun) "MINUSP" (quote minusp) (quote ((om-load-inputfun (quote input-funbox) "X" "X" nil))) (om-make-point 0 150) nil nil nil nil 1))) (when (fboundp (quote set-active)) (set-active box nil)) box) (let ((box (om-load-boxcall (quote genfun) "OMIF" (quote omif) (quote ((om-load-inputfun (quote input-funbox) "IF" "TEST" nil) (om-load-inputfun (quote input-funbox) "THEN" "ACTION" nil) (om-load-inputfun (quote input-funbox) "ELSE" "ELSE" nil))) (om-make-point 20 247) nil nil nil nil 1))) (when (fboundp (quote set-active)) (set-active box nil)) box) (let ((box (om-load-boxout "output" 0 (om-make-point 108 335) (quote ((om-load-inputfun (quote input-funbox) "" "out" nil))) "nth" nil))) (when (fboundp (quote set-active)) (set-active box nil)) box) (let ((box (om-load-boxin "list" 1 (om-make-point 55 45) "" "list" (list 1 2 3) nil))) (when (fboundp (quote set-active)) (set-active box nil)) box) (let ((box (om-load-boxin "n" 0 (om-make-point 5 45) "" "n" -1 nil))) (when (fboundp (quote set-active)) (set-active box nil)) box))) (quote ((6 0 1 0 nil 0) (5 0 1 1 nil 0) (6 0 2 0 nil 0) (2 0 3 0 nil 0) (1 0 3 2 nil 0) (3 0 4 0 nil 0))) nil 7.01))
