; OM File Header - Saved 2023/01/17 19:26:15
; (7.01 :patc (om-make-point 658 10) (om-make-point 779 428) (om-make-point 500 360) "" 183 0 "2023/01/17 18:19:38" "2023/01/17 18:28:17")
; End File Header
(in-package :om)(load-lib-for (quote nil))(setf *om-current-persistent* (om-load-patch1 "split-list" (quote ((let ((box (om-load-boxcall (quote bastype) "aux" (quote t) (quote nil) (om-make-point 271 202) (om-make-point 26 28) 0 "0" nil))) (when (fboundp (quote set-active)) (set-active box nil)) box) (let ((box (om-load-boxcall (quote lispfun) "SUBSEQ 2" (quote subseq) (quote ((om-load-inputfun (quote input-funbox) "SEQUENCE" "SEQUENCE" nil) (om-load-inputfun (quote input-funbox) "START" "START" nil) (om-load-inputfun (quote input-funbox) "add-input" "add-input" nil))) (om-make-point 327 223) nil nil nil nil 1))) (when (fboundp (quote set-active)) (set-active box nil)) box) (let ((box (om-load-boxcall (quote lispfun) "SUBSEQ" (quote subseq) (quote ((om-load-inputfun (quote input-funbox) "SEQUENCE" "SEQUENCE" nil) (om-load-inputfun (quote input-funbox) "START" "START" nil) (om-load-inputfun (quote input-funbox) "add-input" "add-input" nil))) (om-make-point 201 248) nil nil nil nil 1))) (when (fboundp (quote set-active)) (set-active box nil)) box) (let ((box (om-load-boxout "output 2" 1 (om-make-point 326 307) (quote ((om-load-inputfun (quote input-funbox) "" "out" nil))) "right" nil))) (when (fboundp (quote set-active)) (set-active box nil)) box) (let ((box (om-load-boxout "output" 0 (om-make-point 276 307) (quote ((om-load-inputfun (quote input-funbox) "" "out" nil))) "left" nil))) (when (fboundp (quote set-active)) (set-active box nil)) box) (let ((box (om-load-boxin "itemsinleft" 1 (om-make-point 55 45) "" "itemsinleft" 0 nil))) (when (fboundp (quote set-active)) (set-active box nil)) box) (let ((box (om-load-boxin "list" 0 (om-make-point 5 45) "" "list" (list 1 2 3 4 5) nil))) (when (fboundp (quote set-active)) (set-active box nil)) box))) (quote ((6 0 1 0 nil 0) (5 0 1 1 nil 0) (6 0 2 0 ((om-make-point 15 101) (om-make-point 15 227) (om-make-point 211 175) (om-make-point 211 248)) 0) (0 0 2 1 nil 0) (5 0 2 2 ((om-make-point 83 101) (om-make-point 83 175) (om-make-point 246 166) (om-make-point 231 248)) 0) (1 0 3 0 nil 0) (2 0 4 0 nil 0))) nil 7.01))
